<svg xmlns="http://www.w3.org/2000/svg" x="0px" y="0px" width="100px" height="46px" viewBox="0 0 137.14 169.56"><defs><style>.cls-1{fill:#f49220;}.cls-2{fill:#0070c1;}</style></defs><g id="Layer_2" data-name="Layer 2"><g id="svg871"><g id="layer1"><g id="g1424"><path id="path832" class="cls-1" d="M55.14,86.41c-.17-.45.43-2,1.34-3.45S60,77,62.31,72.83s6.45-11.45,9.23-16.28,5-8.88,5-9a17.35,17.35,0,0,1,1.18-2.2c1.35-2.29,2.09-2,3.77,1.33.54,1.1,2.86,5.24,5.14,9.21,13.34,23.18,17.11,30,17.11,30.77,0,.35-8.69.55-24.17.55-20.65,0-24.22-.12-24.48-.81Z"/><path id="path830" class="cls-2" d="M94.6,168.25A30.92,30.92,0,0,1,81,160.1C73.54,152.7,71,145.53,71,131.62c0-6.28-.19-8.74-.7-9.07s-13.18-.57-28.45-.72c-9.53-1.38-22.28,2.41-30.82-1.78A19.72,19.72,0,0,1,0,102.16c0-4.09,1.33-7.3,7-17.25,2.78-4.88,8.62-15.25,13-23S32.41,39.73,37.9,30,49.37,9.5,51.2,6.22A66.76,66.76,0,0,1,54.9,0c.21-.13,2.72,3.81,5.58,8.75l5.19,9-3.05,5.83c-1.68,3.21-8.55,15.57-15.26,27.48C21.67,96.59,22.19,95.62,22.19,98a4.58,4.58,0,0,0,1.63,3.86l1.62,1.63,22.66-.14,22.66-.15.28-8,.27-8.05H89.63l.28,8.05.28,8,10,.36c7,.25,10.89.64,13,1.31C133.5,111.24,143,133.43,133.37,152a34.64,34.64,0,0,1-21,16.7,37.49,37.49,0,0,1-17.75-.47Zm16.62-18.88a14.62,14.62,0,0,0,6.65-8.22,12.34,12.34,0,0,0-.23-9.56c-1.34-3.58-5.29-7.48-8.65-8.56-3-1-15.62-1.48-17.55-.72l-1.53.6v8.58c0,4.72.26,9.29.59,10.15a15.53,15.53,0,0,0,9.48,9,16.75,16.75,0,0,0,11.24-1.28Z"/></g></g></g></g></svg>