<?xml version="1.0" encoding="utf-8"?>
<!-- Generator: Adobe Illustrator 22.1.0, SVG Export Plug-In . SVG Version: 6.00 Build 0)  -->
<svg version="1.1" id="Layer_1" xmlns="http://www.w3.org/2000/svg" xmlns:xlink="http://www.w3.org/1999/xlink" x="0px" y="0px"
	 width="96px" height="40px" viewBox="0 0 96 40" style="enable-background:new 0 0 96 40;" xml:space="preserve">
<style type="text/css">
	.st0{fill:#FFFFFF;}
</style>
<g>
	<path class="st0" d="M1.4,32.2C0.5,31.6,0,30.5,0,28.9c0-1.2,0.3-2.2,0.9-2.9c0.6-0.7,1.4-1.2,2.2-1.5s1.8-0.6,3-0.8l3.3-0.6V20
		c0-2.2-1.1-3.4-3.4-3.4c-0.8,0-1.6,0.2-2.2,0.6c-0.7,0.4-1,0.9-1,1.4c0,0.2,0,0.4,0.1,0.5c0,0.1,0.1,0.1,0.2,0.2
		c0.1,0.1,0.2,0.1,0.3,0.1c0.4,0.1,0.8,0.3,1,0.5c0.2,0.2,0.3,0.5,0.3,0.9c0,0.5-0.1,0.9-0.5,1.1c-0.3,0.2-0.7,0.3-1.1,0.3
		c-0.5,0-1-0.2-1.5-0.6c-0.4-0.4-0.7-1-0.7-1.8c0-0.9,0.2-1.7,0.7-2.3s1.1-1.1,1.9-1.5c0.8-0.3,1.6-0.5,2.4-0.5c1.6,0,3,0.4,4.1,1.2
		c1.2,0.8,1.7,2.1,1.7,3.9v8.9c0,1.2,0.4,1.8,1.1,1.8c0.6,0,1-0.4,1.3-1.1s0.4-1.6,0.4-2.6h0.7c0,1.4-0.2,2.7-0.6,3.7
		c-0.4,1-1.2,1.5-2.3,1.5c-1,0-1.8-0.3-2.3-0.9s-0.8-1.5-0.9-2.6l-0.2-0.1C8.5,30,8,30.8,7.1,31.6c-0.8,0.8-1.8,1.1-2.8,1.1
		C3.4,33.2,2.3,32.9,1.4,32.2z M7.8,30.6c0.6-0.9,1.2-2,1.6-3.3v-3.4l-3.2,0.7c-1.2,0.2-2,0.7-2.5,1.4C3.3,26.7,3,27.7,3,29
		c0,1.1,0.2,1.9,0.7,2.3s1,0.6,1.6,0.6C6.4,31.9,7.2,31.4,7.8,30.6z"/>
	<path class="st0" d="M17.2,31.9h1.9c0.3,0,0.5-0.1,0.6-0.2s0.2-0.3,0.2-0.6V8.6c0-0.3-0.1-0.5-0.2-0.6c-0.1-0.1-0.3-0.2-0.6-0.2
		h-1.9V6.9h5.3V31c0,0.3,0.1,0.5,0.2,0.6s0.3,0.2,0.6,0.2h1.9v0.9h-8V31.9z"/>
	<path class="st0" d="M27,31.9h1.9c0.3,0,0.5-0.1,0.6-0.2s0.2-0.3,0.2-0.6V8.6c0-0.3-0.1-0.5-0.2-0.6c-0.1-0.1-0.3-0.2-0.6-0.2H27
		V6.9h5.3V31c0,0.3,0.1,0.5,0.2,0.6c0.1,0.1,0.3,0.2,0.6,0.2H35v0.9h-8V31.9z"/>
	<path class="st0" d="M40.4,31.5c-0.7-1.1-1.1-2.4-1.1-3.9v-9.7c0-0.3-0.1-0.5-0.2-0.6c-0.1-0.1-0.3-0.2-0.6-0.2H37v-0.9h4.9v12.1
		c0,1.1,0.2,2,0.6,2.7c0.4,0.7,1.1,1.1,2.2,1.1c0.8,0,1.6-0.3,2.3-0.9s1.2-1.4,1.6-2.4c0.4-1,0.6-2.2,0.6-3.4v-7.5
		c0-0.3-0.1-0.5-0.2-0.6c-0.1-0.1-0.3-0.2-0.6-0.2h-1.5v-0.9h4.9v14.9c0,0.3,0.1,0.5,0.2,0.6c0.1,0.1,0.3,0.2,0.6,0.2H54v0.9h-4.9
		v-3H49c-0.6,1.2-1.2,2-2.1,2.6c-0.8,0.6-1.7,0.9-2.7,0.9C42.4,33.2,41.1,32.6,40.4,31.5z"/>
	<path class="st0" d="M56.5,31.9H58c0.3,0,0.5-0.1,0.6-0.2s0.2-0.3,0.2-0.6V17.9c0-0.3-0.1-0.5-0.2-0.6c-0.1-0.1-0.3-0.2-0.6-0.2
		h-1.5v-0.9h4.9v3.6h0.1c0.5-1.3,1.2-2.3,2-3c0.8-0.7,1.7-1.1,2.6-1.1s1.7,0.3,2.2,0.8c0.6,0.5,0.9,1.3,0.9,2.2
		c0,0.5-0.2,1.1-0.6,1.6s-0.9,0.8-1.4,0.8S66.4,21,66,20.7c-0.3-0.2-0.5-0.6-0.5-1c0-0.5,0.2-0.9,0.7-1.3c0.2-0.1,0.4-0.3,0.5-0.4
		s0.2-0.3,0.2-0.5s-0.1-0.4-0.3-0.5c-0.2-0.1-0.5-0.2-0.9-0.2c-0.7,0-1.5,0.4-2.2,1.1s-1.2,1.7-1.6,2.8c-0.4,1.2-0.6,2.4-0.6,3.6V31
		c0,0.3,0.1,0.5,0.2,0.6c0.1,0.1,0.3,0.2,0.6,0.2h1.5v0.9h-7.2v-0.8H56.5z"/>
	<path class="st0" d="M71.4,31.9h1.5c0.3,0,0.5-0.1,0.6-0.2s0.2-0.3,0.2-0.6V17.9c0-0.3-0.1-0.5-0.2-0.6s-0.3-0.2-0.6-0.2h-1.5v-0.9
		h4.9v14.9c0,0.3,0.1,0.5,0.2,0.6s0.3,0.2,0.6,0.2h1.5v0.9h-7.2V31.9z M73.4,11.2c-0.4-0.4-0.5-0.8-0.5-1.3c0-0.6,0.2-1,0.5-1.4
		C73.8,8.1,74.2,8,74.8,8c0.6,0,1,0.2,1.4,0.5c0.3,0.4,0.5,0.8,0.5,1.4c0,0.5-0.2,1-0.5,1.3c-0.4,0.4-0.8,0.5-1.4,0.5
		C74.2,11.7,73.8,11.6,73.4,11.2z"/>
	<path class="st0" d="M85.1,32c-1.1-0.8-2-1.8-2.6-3.2c-0.6-1.3-1-2.8-1-4.3c0-1.6,0.3-3,1-4.3c0.6-1.3,1.5-2.4,2.6-3.2
		c1.1-0.8,2.3-1.2,3.7-1.2s2.5,0.4,3.7,1.2c1.1,0.8,2,1.8,2.6,3.2c0.6,1.3,1,2.8,1,4.3c0,1.6-0.3,3-1,4.3c-0.6,1.3-1.5,2.4-2.6,3.2
		c-1.1,0.8-2.3,1.2-3.7,1.2S86.2,32.8,85.1,32z M91.9,30.3c0.6-1.4,0.9-3.3,0.9-5.8s-0.3-4.4-0.9-5.8s-1.7-2-3.1-2s-2.5,0.7-3.1,2
		c-0.6,1.4-0.9,3.3-0.9,5.8s0.3,4.4,0.9,5.8s1.7,2,3.1,2C90.2,32.3,91.2,31.6,91.9,30.3z"/>
</g>
</svg>
