<?xml version="1.0" encoding="utf-8"?>
<!-- Generator: Adobe Illustrator 22.1.0, SVG Export Plug-In . SVG Version: 6.00 Build 0)  -->
<svg version="1.1" id="Layer_1" xmlns="http://www.w3.org/2000/svg" xmlns:xlink="http://www.w3.org/1999/xlink" x="0px" y="0px"
	 width="140px" height="65px" viewBox="0 0 140 65" style="enable-background:new 0 0 140 65;" xml:space="preserve">
<style type="text/css">
	.st0{fill:#212121;}
</style>
<path class="st0" d="M46.5,11.2c0.3-0.4,0.6-1,0.8-1.4l-1.4,2.8C46.1,12.2,46.3,11.8,46.5,11.2z M48.9,8.7c-0.3,0.6-0.6,1.3-0.8,2
	C48.5,9.9,48.7,9.2,48.9,8.7z M65.5,8.7c-0.3,0.6-0.6,1.3-0.8,2C65.1,9.9,65.4,9.2,65.5,8.7z M62.7,12.8l1.4-2.8
	c-0.3,0.4-0.6,0.8-0.8,1.4C63,11.8,62.8,12.2,62.7,12.8z M109.2,10.1h-0.4V9.8c0-0.4,0.1-0.8,0.6-1.3h0.1c0.3-0.7,0.6-1.4,0.8-2.4
	s0.6-1.8,0.8-2.5c0.1-0.3,0.1-0.4,0.1-0.7c-0.1,0.1-0.4,0.4-0.6,0.8c-0.1,0.4-0.4,1-0.6,1.4c-0.1,0.6-0.4,1-0.4,1.5
	c-0.1,0.4-0.3,0.8-0.3,1.1c0-0.1,0.1-0.6,0.3-1.3c0.1-0.6,0.3-1.3,0.6-1.8c0.1-0.6,0.4-1.1,0.6-1.7c0.3-0.4,0.4-0.7,0.6-0.7l0.3,0.1
	c0.3,0,0.4,0.1,0.4,0.3h0.1c0.1,0,0.3,0,0.4,0.1l0.6-0.1c0.1,0.1,0.4,0.3,0.6,0.3l0.1,0.4c0,1-0.1,2.3-0.6,3.9
	c-0.4,1.5-0.8,2.7-1.5,3.5c0,0-0.1,0-0.3,0.1c-0.1,0-0.3,0.1-0.3,0.1c-0.3,0-0.7-0.1-1.3-0.4C109.7,10.5,109.4,10.4,109.2,10.1z
	 M110.3,7L110.3,7c0.3-0.3,0.3-0.6,0.4-0.8c0-0.3,0.1-0.6,0.3-0.8h-0.1L110.3,7z M140,24.7c-1.3,2.7-3.2,4.9-5.8,7
	c-2.5,2.1-5.1,3.7-7.7,4.6c-0.3,0.7-0.6,1.7-1.1,2.7c-0.4,1-1,2-1.7,2.8s-1.4,1.7-2.3,2.3s-1.7,0.8-2.7,0.8c-0.7,0-1.1-0.1-1.7-0.3
	c-0.4-0.1-1-0.4-1.5-0.7c-1-0.4-1.7-0.8-2.4-1.4c-0.7-0.4-1.1-1-1.4-1.5c-0.3-0.6-0.6-1.1-0.7-2c-0.1-0.7-0.3-1.7-0.3-2.7
	c0-0.3,0-0.7,0-1c-0.1,0.1-0.3,0.4-0.4,0.6c-0.8,1-1.7,2-2.4,2.8c-0.8,0.8-1.5,1.3-2.1,1.3c-1.3,0-2.4-0.6-3.5-1.5
	c-0.8-0.7-1.4-1.5-1.7-2.5c-0.3,0.4-0.6,1-0.8,1.4c-1.1,1.8-2.3,3.7-3.4,5.2c-1.1,1.7-2.1,3.1-3,4.5s-1.5,2.4-1.8,3
	c-0.4,0.7-1,1.5-1.8,2.7c-0.7,1-1.4,1.8-2.1,2.3c-0.3,0.3-0.7,0.6-1.4,0.7c-0.6,0.3-1,0.4-1.4,0.4c-0.3,0-0.7-0.1-1.3-0.3
	c-0.6-0.1-1.1-0.4-1.7-0.7s-1-0.7-1.5-1c-0.1-0.3-0.4-0.7-0.4-1c-0.1-0.3-0.1-0.7-0.1-1s0-0.7,0-1c0-1.5,0.4-3.4,1.3-5.4
	c0.8-2,1.8-3.9,2.8-5.9c1-2,2-3.9,2.8-5.8c0.8-1.8,1.3-3.4,1.3-4.6c0-0.7-0.3-1.1-0.8-1.5c-0.6-0.4-1.3-0.8-1.8-1.3
	c-0.4-0.3-0.7-0.6-1.1-0.8V26c0,0.7-0.3,2-0.8,3.5c-0.6,1.5-1.1,3.2-2,4.8c-0.7,1.7-1.5,3.2-2.3,4.8c-0.7,1.5-1.4,2.5-1.8,3.2
	c-0.3,0.4-0.7,0.6-1.1,0.6c-0.4,0-0.7-0.1-1.1-0.3c-0.4-0.1-0.7-0.3-1-0.6l-1.1-0.3c-0.8-0.4-1.4-1.3-1.7-2.4
	c-0.3-1.3-0.3-2.3-0.3-3.1c0-1.1,0.1-2.3,0.4-3.5s0.4-2.3,0.4-3c0-0.1,0-0.3-0.1-0.4c-0.3,0.4-0.7,1.3-1.3,2.4
	c-0.6,1.1-1.3,2.4-2,3.5c-0.7,1.3-1.5,2.3-2.3,3.2c-0.8,1-1.5,1.4-2.1,1.4c-0.3,0-0.7-0.1-1-0.3c-0.3-0.1-0.7-0.3-1-0.4
	c-0.8-0.4-1.5-0.8-2-1.3c-0.4-0.4-0.7-0.8-0.8-1.3c0-0.1,0-0.3-0.1-0.3c-0.1,0.4-0.4,0.8-0.6,1.3c-1,2.1-2.1,4.1-3.1,5.9
	s-1.7,3.2-2.1,4.1c-0.3,0.6-0.8,1.8-1.7,3.7c-0.8,1.8-1.7,3.8-2.8,5.8c-1,2-2,3.8-3,5.2c-1,1.4-1.8,2.4-2.3,2.4
	c-0.6,0-1.3-0.3-2-0.7c-0.8-0.4-1.7-0.8-2.3-1.4c-0.6-0.4-1-1-1.4-1.5c-0.3-0.6-0.6-1.1-0.7-1.8C37,58.5,37,57.7,37,56.6
	c0-3,0.4-6.1,1.1-9c0.6-2.3,1.3-4.6,1.8-6.8c-0.6,1-1,1.8-1.4,2.8c-1,1.8-1.7,3.2-2.1,4.1c-0.3,0.6-0.8,1.8-1.7,3.7
	c-0.8,1.8-1.7,3.8-2.8,5.8c-1,2-2,3.8-3,5.2s-1.7,2.4-2.3,2.4c-0.6,0-1.3-0.3-2-0.7c-0.8-0.4-1.7-0.8-2.3-1.4c-0.6-0.4-1-1-1.4-1.5
	c-0.3-0.6-0.6-1.1-0.7-1.8s-0.1-1.5-0.1-2.7c0-3,0.4-6.1,1.1-9c0.4-1.8,1-3.7,1.4-5.5c-0.1,0.1-0.1,0.3-0.3,0.3
	c-0.8,1.3-1.7,2.3-2.7,3c-1,0.8-1.8,1.3-2.7,1.3c-0.4,0-1-0.1-1.5-0.4s-1.3-0.6-1.8-1c-0.6-0.4-1.1-0.8-1.4-1.4
	c-0.4-0.6-0.6-1.1-0.6-1.7c0-1.4,0.1-2.8,0.3-4.4c0.1-1.5,0.4-3,0.8-4.2c0-0.1,0.1-0.4,0.1-0.6c0-0.3,0.1-0.4,0.1-0.6v-0.3
	c-0.6,0.6-1.1,1.3-1.8,2.1c-0.7,1-1.4,1.8-2.3,2.8c-0.8,1-1.5,1.7-2.4,2.4c-0.8,0.7-1.5,1-2.1,1c-1.4-0.7-2.7-1.3-3.4-2
	c-0.8-0.7-1.3-2-1.3-3.8c0-1.4,0.3-2.8,1-4.2c0.7-1.5,1.5-3,2.5-4.2s2.3-2.4,3.7-3.1c1.4-0.8,2.7-1.3,4.1-1.3c0.8,0,1.8,0.1,2.8,0.4
	c1,0.3,2,0.6,2.8,0.7c0.1-0.1,0.3-0.4,0.4-0.6c0.1-0.1,0.4-0.3,0.7-0.3c0.3,0,0.4,0,0.6,0.1l0.1,0.1c0,0,0.1,0.1,0.4,0.1
	c0,0,0.1,0,0.1-0.1l0.1,0.3c0.3,0,0.6,0,0.7-0.1l0.6,0.4c0.3-0.1,0.6,0,0.6,0.4c0.1,0.4,0.1,0.7,0.1,0.8c0,0.4-0.1,0.8-0.3,1.5
	c-0.3,0.7-0.6,1.3-0.8,2c-0.3,0.7-0.6,1.4-0.8,2c-0.3,0.6-0.4,1-0.6,1.3c-0.1,0.6-0.4,1.4-0.8,2.5c-0.4,1.1-0.7,2.4-1,3.7
	c-0.4,1.3-0.7,2.5-0.8,3.8c-0.3,1.3-0.3,2.1-0.3,2.7c0,0.1,0,0.1,0,0.3c0,0,0,0.1,0,0.3c0.4,0,1-0.4,1.7-1.3
	c0.7-0.7,1.4-1.7,2.3-2.8c0.8-1.1,1.7-2.4,2.7-3.7c1-1.4,1.8-2.7,2.5-3.9c0.8-1.3,1.5-2.4,2.1-3.4c0.6-1,1-1.7,1.3-2.1l0,0
	c0.1-0.3,0.3-0.7,0.4-1c1.3-2.8,2.7-5.8,4.2-8.9c1.5-3.1,3.1-5.9,4.6-8.3c1.5-2.5,3.1-4.5,4.5-6.2s2.7-2.4,3.8-2.4
	c0.1,0,0.4,0,0.7,0.1c0.3,0,0.7,0.1,1.1,0.3c0.4,0.1,0.7,0.1,1,0.3c0.3,0.1,0.4,0.3,0.4,0.3c0.1,0,0.4,0,0.6,0.1
	c0.1,0.1,0.3,0.3,0.3,0.6s0,0.6-0.1,0.7c0.3,0.4,0.4,0.7,0.6,1s0.1,0.7,0.1,1.1c0,1.7-0.4,3.4-1.1,5.1c-0.7,1.7-1.7,3.5-2.8,5.2
	c-1.1,1.7-2.3,3.4-3.7,4.8c-1.3,1.5-2.4,3-3.5,4.1c-0.7,0.8-1.7,1.8-2.7,2.7c-1,0.8-1.8,1.8-2.3,2.8c-1,1.8-2,4.1-3.1,6.8
	s-2.1,5.5-3,8.3c-1,2.8-1.7,5.8-2.4,8.5c-0.7,2.8-1,5.2-1,7.2v1l0.3-0.1c0.8-1.4,1.7-2.8,2.4-4.4c0.7-1.5,1.4-3,2.1-4.5
	c0.7-1.4,1.5-3.2,3-5.8c1.3-2.4,2.7-5.1,4.2-7.7s3.1-5.2,4.5-7.6c1.4-2.3,2.5-3.9,3.4-5.1c0,0,0-0.1,0.1-0.1
	c1.3-2.8,2.7-5.8,4.2-8.9s3.7-5.6,5.2-8.2s3.1-4.5,4.5-6.2s2.7-2.4,3.8-2.4c0.1,0,0.4,0,0.7,0.1c0.3,0,0.7,0.1,1.1,0.3
	c0.4,0.1,0.7,0.1,1,0.3s0.4,0.3,0.4,0.3c0.1,0,0.4,0,0.6,0.1c0.3,0,0.4,0.3,0.4,0.4c0,0.3,0,0.6-0.1,0.7c0.1,0.4,0.4,0.7,0.6,1
	c0.1,0.3,0.1,0.7,0.1,1.1c0,1.7-0.4,3.4-1.1,5.1c-0.7,1.7-1.7,3.5-2.8,5.2s-2.3,3.4-3.7,4.8c-1.3,1.5-2.4,3-3.5,4.1
	c-0.7,0.8-1.7,1.8-2.7,2.7c-1,0.8-1.8,1.8-2.3,2.8c-1,1.8-2,4.1-3.1,6.8s-2.1,5.5-3,8.3c-1,2.8-1.7,5.8-2.4,8.5
	c-0.7,2.8-1,5.2-1,7.2v1l0.3-0.1c0.8-1.4,1.7-2.8,2.4-4.4c0.7-1.5,1.4-3,2.1-4.5c0.7-1.4,1.5-3.2,3-5.8c1.3-2.4,2.7-5.1,4.2-7.7
	c1.5-2.5,3-5.1,4.4-7.3c0-0.3,0-0.6,0.1-0.8c0.1-1.1,0.3-2.3,0.6-3.4c0.3-1.1,0.7-2.3,1-3.1c0.4-1,0.8-1.5,1.5-1.7l0.3,0.1l0.4-0.1
	l0.1,0.3l0.4,0.1l0.1-0.1c0.1,0.1,0.1,0.4,0.1,0.7l0.3-0.4h0.1c0,0.3,0,0.6,0.1,0.7l0.3-0.7h0.1c0.1,0,0.3,0.1,0.3,0.3
	c0,0.3,0.1,0.4,0.1,0.6l0.1-0.6h0.1c0.4,0.4,0.6,0.7,0.6,1c0,0.6-0.1,1.3-0.3,2.4c-0.3,1.1-0.6,2.4-0.8,3.7c-0.3,1.3-0.7,2.5-1,3.8
	c-0.3,1.1-0.6,2.1-0.7,2.7c0.7-0.6,1.3-1.1,1.7-1.7c0.6-0.6,1-1.3,1.5-1.8c-0.4,0.7-0.8,1.3-1.3,1.8c-0.4,0.6-0.8,1.1-1.4,1.7v0.1
	c0.7-0.6,1.4-1.1,1.8-2c0.4-0.8,1-1.5,1.7-2.3c-0.3,0.6-0.7,1-1,1.5c-0.4,0.4-0.7,1-1,1.5c0,0.1-0.1,0.4-0.4,0.7s-0.6,0.6-0.6,0.7
	c1.5-1.5,3-3.2,4.1-5.2c-0.6,1-1.1,2-1.7,2.8l0.1,0.1c0.6-0.6,1.1-1.3,1.7-2.1c0.6-0.8,1.1-1.7,1.7-2.7c0.6-1,1-1.8,1.5-2.8
	c0.4-1,0.8-1.7,1-2.4c0.3-0.7,0.4-1.5,0.7-2.4c0.1-0.8,0.4-1.7,0.8-2.4c0-0.3,0.1-0.8,0.4-1.5c0.3-0.7,0.4-1.1,0.7-1.3l0.1,0.3
	l0.3-0.3l0.3,0.4l0.4-0.1l0.1,0.3l0.6-0.1c0.1,0.1,0.3,0.3,0.4,0.3c0.3,0,0.4,0.3,0.4,0.4c0,0.3,0,0.4,0,0.7s0,0.8-0.1,1.7
	c-0.1,0.8-0.3,1.7-0.4,2.5c-0.1,1-0.4,1.8-0.6,2.7c-0.3,0.8-0.4,1.5-0.4,1.8c-0.4,1.8-0.8,3.7-1.1,5.6c-0.3,1.8-0.4,3.8-0.4,5.8v0.7
	l0.3-0.1c1.8-2.3,3.5-4.6,4.8-7.3c1.3-2.4,2.4-4.8,3.7-7.2c-0.1-0.1-0.3-0.1-0.3-0.3c-0.6-0.6-0.8-1.4-0.8-2.4c0-0.4,0-1,0.1-1.7
	c0.1-0.7,0.3-1.4,0.6-2.1c0.3-0.7,0.6-1.3,0.8-1.8c0.3-0.6,0.8-0.8,1.3-0.8c0,0,0.3,0,0.6,0.1c0.3,0,0.7,0.1,1,0.3
	c0.3,0.1,0.6,0.1,0.8,0.3c0.3,0,0.4,0.1,0.4,0.1v0.1v0.1c0,1.1-0.3,2.1-0.7,3.1c-0.4,1-0.7,2-0.7,3.1c0,1.1,0.3,2,0.8,2.4
	c0.6,0.6,1.3,1,2.1,1.4c0.7,0.4,1.4,0.8,2.1,1.4c0.6,0.6,0.8,1.3,0.8,2.3c0,1-0.4,2.3-1.1,4.1c-0.7,1.7-1.7,3.7-2.7,5.6
	c-1,2-2,4.1-2.8,6.2s-1.4,3.9-1.7,5.6c0.4,0,1.1-0.6,2.1-1.7c1-1,2.1-2.4,3.2-3.9c1.3-1.5,2.5-3.2,3.8-5.1c1.3-1.8,2.5-3.5,3.7-5.2
	c1.1-1.7,2.1-3.1,3-4.4c0.3-0.4,0.6-0.8,0.7-1.1c0.4-1.3,0.7-2.4,1.3-3.7c0.6-1.4,1.1-2.7,1.7-3.9c0.6-1.3,1.1-2.3,1.5-3.2l1-0.7
	l0.1,0.3l0.4-0.3c-0.1,0.1-0.1,0.4,0,0.6c0.1-0.1,0.3-0.3,0.3-0.3c0.1-0.1,0.1-0.1,0.3-0.3v0.1v0.1c0,0,0,0.1-0.1,0.1l0.8-0.4
	l0.7,0.4l-0.3,0.6c0,0.3,0,0.4,0,0.7c0.1,0.1,0.1,0.4,0,0.7c-0.3,1.1-0.7,2.3-1.3,3.5c-0.4,1.1-1,2.3-1.4,3.5
	c-0.4,1.1-0.7,2.4-1,3.7c0.7,1.8,0.6,3.1,0.6,4.4V37c0.6-0.3,1.3-1,2.1-1.8c0.8-1,1.5-2,2.4-3s1.5-2.1,2.4-3.1
	c0.1-0.3,0.4-0.4,0.6-0.7c0.3-0.6,0.4-1.1,0.7-1.7c0.8-1.7,1.8-3.2,3.1-4.5c1.3-1.3,2.5-2,3.9-2c0.6,0,1,0,1.3,0.1
	c1.1,0.4,2,0.7,2.8,1c0.8,0.3,1.4,0.7,2,1.1c0.6,0.4,0.8,1.1,1.1,2c0.3,0.8,0.3,2,0.3,3.5c0,0.6,0,1.1-0.1,1.7
	c-0.1,0.6-0.1,1.1-0.1,1.7v0.4h0.1h0.1c0.4,0,1.3-0.3,2.4-0.8c1.1-0.6,2.4-1.3,3.7-2.1c1.3-0.8,2.4-1.5,3.5-2.4S139.4,25,140,24.7z
	 M90.7,31.5L90.7,31.5l0.1-0.7h-0.1V31.5z M89.3,30.9c0.1-0.3,0.1-0.4,0.1-0.6s0-0.3-0.1-0.3C89.3,30.5,89.3,30.8,89.3,30.9z
	 M76.3,21.6L76.3,21.6c0.1-0.1,0.3-0.3,0.3-0.4c0-0.1,0.1-0.4,0.1-0.6h-0.1L76.3,21.6z M75.4,23.6l0.3-1l0,0
	C75.5,23,75.4,23.5,75.4,23.6z M74.9,20.1c0,0,0.1-0.1,0.1-0.3h-0.1V20.1z M67.2,5.7L67.2,5.7l0.1-0.4h-0.1V5.7z M53.9,25.1
	c0.7-0.7,1.7-1.7,2.5-2.8c1-1.1,2-2.3,3-3.5c1-1.3,2-2.7,2.8-4.1c1-1.4,1.7-2.8,2.4-4.2c0,0.1,0,0.3,0,0.3s0,0.1,0,0.3l0.1,0.1
	c0.4-1.1,0.8-2.1,1.4-3.1c0.4-1,0.7-2.1,0.7-3.2c0-0.1,0-0.3,0-0.4c0-0.1,0-0.3,0-0.4h-0.1c0,1.3-0.1,2.3-0.3,2.8
	c-0.1,0.7-0.4,1.3-0.7,1.7c0.6-1.4,0.8-2.7,0.8-3.9c0-0.3,0-0.6-0.1-0.7c0,0.4,0,0.7,0,1.1c0,0.4-0.1,0.7-0.1,1.1s-0.3,1.1-0.7,2.3
	c-0.4,1-0.8,2.1-1.5,3.1c-0.6,1.1-1.1,2.1-1.7,3c-0.6,0.8-1,1.4-1.4,1.7c0.4-0.8,1-1.7,1.5-2.5c0.6-0.8,1.1-1.8,1.7-2.8
	c0.6-1,1-2,1.4-3c0.3-1,0.6-2,0.6-3V4.4c-0.3,0.3-0.4,0.7-0.4,1.1s0,0.8-0.1,1.3c0-0.4,0-0.7,0.1-1c0.1-0.3,0.1-0.7,0-1
	c0,1.1-0.1,2-0.4,2.8s-0.7,1.5-1.1,2.4c0.3-0.7,0.6-1.4,0.8-2.3c0.3-0.7,0.4-1.5,0.4-2.3V5.3c-0.1,0.1-0.3,0.4-0.4,1
	c-0.1,0.6-0.3,1-0.4,1.3c0-0.3,0.1-0.6,0.1-0.7c0-0.3,0-0.4,0.1-0.6h-0.1c-0.4,0.6-1,1.5-2,3s-2,3-2.8,4.5c-1.1,1.7-2,3.1-2.7,4.5
	c-0.7,1.4-1.1,2.3-1.3,2.7h-0.1c-0.1,0.3-0.3,0.6-0.4,0.7c-0.1,0.3-0.3,0.7-0.4,1c-0.1,0.3-0.3,0.7-0.6,1l0.1,0.1c0.8-1,1.7-2,2.4-3
	c0.7-1,1.5-2,2.4-2.8v0.3c-0.3,0.3-0.7,0.8-1.3,1.4c-0.6,0.6-1.1,1.3-1.7,2s-1.1,1.4-1.5,2s-0.7,1.1-1,1.4V25.1z M50.4,5.7L50.4,5.7
	l0.1-0.4h-0.1V5.7z M37.2,25.1c0.7-0.7,1.7-1.7,2.5-2.8c1-1.1,2-2.3,3-3.5s2-2.7,2.8-4.1c1-1.4,1.7-2.8,2.4-4.2c0,0.1,0,0.3,0,0.3
	s0,0.1,0,0.3l0.1,0.1c0.4-1.1,0.8-2.1,1.4-3.1c0.4-1,0.7-2.1,0.7-3.2c0-0.1,0-0.3,0-0.4c0-0.1,0-0.3,0-0.4H50c0,1.3-0.1,2.3-0.3,2.8
	c-0.1,0.7-0.4,1.3-0.7,1.7c0.6-1.4,0.8-2.7,0.8-3.9c0-0.3,0-0.6-0.1-0.7c0,0.4,0,0.7,0,1.1c0,0.4-0.1,0.7-0.1,1.1s-0.3,1.1-0.7,2.3
	c-0.4,1-0.8,2.1-1.5,3.1c-0.7,1.1-1.3,2.1-1.8,3.1c-0.6,0.8-1,1.4-1.4,1.7c0.4-0.8,1-1.7,1.5-2.5c0.6-0.8,1.1-1.8,1.7-2.8s1-2,1.4-3
	c0.3-1,0.6-2,0.6-3V4.4c-0.1,0.4-0.1,0.8-0.1,1.3c0,0.4,0,0.8-0.1,1.3c0-0.4,0-0.7,0.1-1c0.1-0.3,0.1-0.7,0-1c0,1.1-0.1,2-0.4,2.8
	c-0.6,0.4-0.8,1.3-1.3,2c0.3-0.7,0.6-1.4,0.8-2.3c0.3-0.7,0.4-1.5,0.4-2.3l0,0c-0.1,0.1-0.3,0.4-0.4,1s-0.3,1-0.4,1.3
	C47.9,7.3,48,7,48,6.8c0-0.3,0-0.4,0.1-0.6H48c-0.4,0.6-1,1.5-2,3s-2,3-2.8,4.5c-1,1.7-1.8,3.1-2.7,4.5c-0.8,1.4-1.1,2.3-1.3,2.7
	l-0.1,0.1c-0.1,0.3-0.3,0.6-0.4,0.7c-0.1,0.3-0.3,0.7-0.4,1c-0.1,0.3-0.3,0.7-0.6,1l0.1,0.1c0.8-1,1.7-2,2.4-3c0.7-1,1.5-2,2.4-2.8
	l0,0.1c-0.3,0.3-0.7,0.8-1.3,1.4c-0.6,0.6-1.1,1.3-1.7,2c-0.6,0.7-1.1,1.4-1.5,2s-0.7,1.1-1,1.4C37.2,25,37.2,25.1,37.2,25.1z
	 M1.5,34.7c0,0.1-0.1,0.4-0.1,0.6s0,0.3,0,0.6c0,0.3,0,0.4,0.1,0.6c0-0.3,0-0.6,0-0.8C1.4,35.3,1.5,35,1.5,34.7z M1.7,31.2L1.7,31.2
	c-0.7,1.5-1,3.1-1,4.5c0,0.6,0.1,1.1,0.3,1.5c0-0.3-0.1-0.8-0.1-1.4C0.8,34.2,1.1,32.6,1.7,31.2z M3,35.4c-0.1,0.7-0.1,1.1-0.1,1.4
	v0.6c0-0.3,0.1-0.7,0.1-1C3,36.1,3,35.7,3,35.4z M13.1,40.2c-0.1,0.4-0.3,0.8-0.3,1.4l0.1,0.7c0-0.3,0.1-0.7,0.1-1
	C13.1,41.1,13.1,40.6,13.1,40.2L13.1,40.2z M14.4,41.3c0,0.1-0.1,0.4-0.1,0.6s0,0.3,0,0.6v0.3c0.1-0.6,0.1-0.8,0.1-1V41.3z
	 M14.6,30.6L14.6,30.6c-0.3,0.3-0.4,1-0.7,2c-0.3,1.1-0.6,2.4-0.8,3.7s-0.6,2.4-0.7,3.5c-0.1,1-0.3,1.5-0.3,1.8
	c0,0.4,0.1,0.7,0.3,1.1c0.1-2.1,0.4-4.1,0.8-6.1C13.7,34.6,14.1,32.6,14.6,30.6z M15.9,24.9L15.9,24.9c-1.3-0.1-2.5,0.3-3.8,1.3
	c-1.3,0.8-2.5,2-3.7,3.2c-1.1,1.4-2,2.8-2.8,4.2c-0.7,1.5-1.1,2.8-1.1,3.8V38c0.3-0.1,0.7-0.4,1.1-0.8v0.1c-0.1,0.1-0.3,0.3-0.6,0.6
	c-0.3,0.3-0.4,0.4-0.4,0.6c0.3-0.1,0.6-0.3,0.8-0.6c0.1-0.3,0.4-0.4,0.7-0.6c-0.3,0.4-0.6,0.7-0.7,0.8l-0.1,0.4
	c0.7-0.7,1.3-1.3,2-1.8c0.7-0.6,1.3-1.3,1.7-2C8.9,35,8.6,35.4,8.2,36c-0.4,0.6-0.7,0.8-0.8,1.1l0.1,0.1C7.7,37,8.2,36.4,9,35.6
	c0.7-0.8,1.5-1.7,2.3-2.7c0.7-1,1.4-1.8,2.1-2.7c0.7-0.8,1-1.4,1-1.7c-0.7,0.8-1.4,1.5-2,2.4c-0.6,0.8-1.1,1.4-1.8,2.1
	c0-0.1,0.3-0.6,0.6-0.8c0.3-0.4,0.7-0.8,1-1.3c0.3-0.4,0.7-0.8,1-1.3c0.3-0.4,0.6-0.7,0.8-0.8c0.6-0.7,0.8-1.3,1.1-2
	C15.2,26.1,15.5,25.4,15.9,24.9z M24.4,34.4L24.4,34.4c0.1-0.1,0.4-0.6,0.8-1.1c0.4-0.7,0.8-1.3,1.4-2.1c0.1-0.3,0.3-0.6,0.4-0.7
	c0.3-0.8,0.7-1.5,1.1-2.4c-0.6,0.8-1,1.8-1.5,2.7C25.9,32,25.2,33.3,24.4,34.4z M22.7,52.2L22.7,52.2c-0.1,0.7-0.1,1.4-0.4,2.3
	C22,55.3,22,56,22,56.7c0,0.4,0,0.7,0,1.1c0,0.3,0,0.7,0,1.1c0-0.8,0-1.8,0.1-2.7c0.1-1,0.1-1.8,0.1-2.7c0.1-0.1,0.1-0.4,0.1-0.6
	C22.4,52.9,22.7,52.3,22.7,52.2z M24.2,53.5c-0.6,1.7-0.7,3.5-0.7,5.4c0,0.3,0,0.6,0.1,0.7c0-1.1,0.1-2.1,0.3-3.1
	C23.9,55.4,24.1,54.4,24.2,53.5z M25.4,38c0,0.1-0.1,0.3-0.1,0.4c-0.1,0.4-0.4,0.7-0.6,1c-0.6,2-1.1,4.1-1.5,6.2
	c-0.6,2.4-1,4.6-1.4,6.8c-0.3,2.1-0.6,3.8-0.6,5.1c0,1,0.1,1.8,0.4,2.5c-0.1-0.3-0.1-0.8-0.3-1.4c0-0.6,0-1,0-1.3
	c0-3.1,0.4-6.3,1.4-9.9C23.5,44,24.5,40.9,25.4,38z M44.2,29.4c0.3-0.6,0.4-1.1,0.7-1.7c-3.1,5.4-6.3,10.7-9.3,16.1
	c-3.4,5.8-6.6,11.8-9.6,17.9c0.7-0.7,1.5-2,2.3-3.5s1.3-2.8,1.8-3.9c2.4-4.8,5.1-9.4,7.7-13.9C40,36.7,42.1,33,44.2,29.4z
	 M39.3,52.2L39.3,52.2c-0.1,0.7-0.1,1.4-0.4,2.3c-0.3,0.8-0.3,1.5-0.3,2.3c0,0.4,0,0.7,0,1.1c0,0.3,0,0.7,0,1.1c0-0.8,0-1.8,0.1-2.7
	c0.1-1,0.1-1.8,0.1-2.7C39,53.5,39,53.2,39,53C39,52.9,39.3,52.3,39.3,52.2z M40.8,53.5c-0.6,1.7-0.7,3.5-0.7,5.4
	c0,0.3,0,0.6,0.1,0.7c0-1.1,0.1-2.1,0.3-3.1C40.6,55.4,40.7,54.4,40.8,53.5z M42.1,37.8c0.1-0.7,0.4-1.3,0.7-2
	c0.3-0.6,0.4-1.3,0.6-1.8c-0.3,0.7-0.6,1.3-1,2c-0.3,0.8-0.6,1.7-1,2.8c-0.7,2.1-1.3,4.4-1.8,6.8c-0.6,2.4-1,4.6-1.4,6.8
	c-0.3,2.1-0.6,3.8-0.6,5.1c0,1,0.1,1.8,0.4,2.5c-0.1-0.3-0.1-0.8-0.3-1.4c0-0.6,0-1,0-1.3c0-3.1,0.4-6.3,1.4-9.9
	C40.3,43.9,41.1,40.8,42.1,37.8z M59.9,29.4c0,0.1,0,0.4-0.1,0.6c0.1-0.3,0.3-0.6,0.6-0.7c0.4-1.3,0.6-2.4,0.7-3.4
	c0,0,0,0.1-0.1,0.1C60.4,27,60.1,28.1,59.9,29.4z M59.9,31.2c0-0.1,0.1-0.4,0.1-0.6c-0.1,0.1-0.3,0.4-0.4,0.6c0,0.1,0,0.3,0,0.4
	C59.7,31.5,59.7,31.3,59.9,31.2z M58.7,33.2C58.7,33,58.7,33,58.7,33.2c0-0.1,0-0.3,0-0.4c-2.1,3.7-4.2,7.3-6.3,11
	c-3.4,5.8-6.6,11.8-9.6,17.9c0.7-0.7,1.5-2,2.3-3.5c0.7-1.5,1.3-2.8,1.8-3.9c2.4-4.8,5.1-9.4,7.7-13.9C55.9,38,57.3,35.6,58.7,33.2z
	 M59.9,37.1c-0.1-0.3-0.1-0.7-0.1-1.1s0-0.7-0.1-1c0,0.1-0.1,0.1-0.1,0.3s0,0.3,0,0.4c0,0.3,0,0.6,0.1,0.8
	C59.7,36.7,59.7,37,59.9,37.1z M60.3,33.6L60.3,33.6c0,0.4-0.1,0.8-0.1,1.3s0,0.8,0,1.4c0-0.3,0.1-0.7,0.1-1.4
	C60.3,34.3,60.3,33.9,60.3,33.6z M61.1,35.6L61.1,35.6l-0.1,1h0.1C61.1,36.6,61.1,35.6,61.1,35.6z M61.8,33.2
	c-0.1,0.7-0.3,1.4-0.3,2c0,0.7-0.1,1.3-0.1,2c0.1-0.7,0.1-1.3,0.1-2C61.7,34.6,61.8,33.9,61.8,33.2z M62.3,31.3
	c0,0.1-0.1,0.3-0.1,0.6C62.3,31.8,62.3,31.6,62.3,31.3z M73.7,30.4c0,0.1,0,0.4-0.1,0.4h0.1V30.4L73.7,30.4z M73.4,28l0.1-0.6h-0.1
	V28z M71.8,38.5c-0.1-0.6-0.1-1.1-0.1-1.5c0-0.7,0-1.5,0.1-2.4c0.1-1,0.1-1.8,0.3-2.8c0.1-1,0.3-1.8,0.6-2.7
	c0.3-0.8,0.4-1.7,0.6-2.4h-0.1c-0.4,1.7-0.8,3.4-1.3,5.1c-0.4,1.7-0.6,3.4-0.6,5.2c0,1.1,0.1,2.1,0.6,3.1C72,39.5,72,39.1,71.8,38.5
	z M73.1,29L73,29.4l0.1,0.1C73.1,29.2,73.1,29.1,73.1,29L73.1,29z M72.4,37L72.4,37l-0.1,0.8h0.1V37z M72.8,37.3L72.8,37.3l-0.1,1
	h0.1V37.3z M73,29.9c-0.3,1.3-0.4,2.4-0.7,3.7C72.1,34.9,72,36,72,37.4V38c0-0.4,0.1-1,0.3-1.7c0.1-0.7,0.1-1.5,0.3-2.4
	s0.1-1.5,0.3-2.3C72.8,30.8,73,30.2,73,29.9z M73,34.7c0-0.6,0.1-1,0.3-1.4s0.1-1,0.1-1.4c-0.1,0.6-0.3,1-0.3,1.4
	C73.1,33.7,73,34.3,73,34.7z M74.4,29.9c-0.1,0.3-0.1,0.4-0.1,0.4c-0.1,0.4-0.3,0.8-0.4,1.5s-0.3,1.4-0.3,2.1
	c-0.1,0.7-0.1,1.4-0.1,2.1s0,1.3,0,1.7V39c0.1-1.5,0.3-3.1,0.4-4.5C73.8,32.9,74.1,31.3,74.4,29.9z M78,36.7c0.4-0.7,0.7-1.3,1-1.8
	c0.3-0.6,0.4-0.8,0.4-0.8v-0.1h-0.1c-0.6,1-1,2-1.7,3c-0.7,1-1.3,1.8-2,2.8v0.1h0.1c0.1-0.1,0.4-0.6,0.8-1.1
	C77.2,38.1,77.6,37.4,78,36.7z M79.6,35.4c0.1-0.3,0.3-0.6,0.3-0.6v-0.1v-0.1c-0.4,0.6-0.8,1.1-1.3,1.8c-0.4,0.7-0.7,1.4-1,2
	l0.1,0.1c0-0.1,0.3-0.4,0.4-0.7c0.3-0.3,0.6-0.7,0.7-1.1C79.2,36.1,79.3,35.7,79.6,35.4z M79.3,36.6L79.3,36.6L79.2,37
	C79.2,36.8,79.3,36.7,79.3,36.6z M80,35c-0.3,0.6-0.4,0.8-0.7,1.1c0.1-0.1,0.3-0.3,0.4-0.4C80,35.6,80,35.3,80,35z M84.1,20.9
	c-0.1,0.7-0.3,1.4-0.3,2.1v0.4L84.1,20.9z M83.8,26.4c-0.3,0.4-0.6,1-0.7,1.7c-0.3,0.7-0.6,1.1-0.8,1.5c0.3,0,0.6-0.6,1-1.4
	C83.7,27.4,83.8,26.7,83.8,26.4z M83.9,25.9c-0.1,0-0.1-0.1-0.3-0.1c0,0.1,0,0.1-0.1,0.1c-0.3,0.6-0.4,0.8-0.6,1
	c-0.3,0.3-0.4,0.7-0.7,1.3c-0.1,0.1-0.4,0.6-0.6,0.8c-0.1,0.4-0.3,0.7-0.4,1v0.1c0,0,0.3-0.3,0.6-0.7c0.3-0.4,0.6-1,0.8-1.4
	c0.3-0.6,0.6-1,0.7-1.5C83.8,26.3,83.8,26,83.9,25.9z M84.5,17.7L84.2,18c-0.3,0.8-0.6,1.7-0.8,2.5C83.1,21.2,83,22.2,83,23
	c0,0.3,0,0.6,0.1,0.7c0-1.1,0.1-2.1,0.3-3.1C83.7,19.5,84.1,18.5,84.5,17.7z M87.9,33c0.1-0.6,0.3-1,0.6-1.5c0.3-0.4,0.4-1,0.4-1.5
	c0-0.3-0.1-0.6-0.3-0.7c0,0.7,0,1.4-0.1,2C88.3,31.6,88,32.3,87.9,33z M81.4,50.1c-0.1,0.7-0.3,1.5-0.3,2.3v0.4L81.4,50.1z
	 M81.8,45.9c-0.4,1-0.7,2-1,3c-0.3,1-0.4,2.1-0.4,3.1c0,0.6,0.1,1,0.3,1.3c0-1.4,0.1-2.7,0.4-3.8C81.3,48.2,81.5,47.1,81.8,45.9z
	 M82.1,45l-0.3,0.7C82,45.6,82.1,45.3,82.1,45z M82.8,51.3L82.8,51.3c-0.1,0.3-0.3,0.6-0.3,0.8c0,0.3-0.1,0.6-0.1,0.8h0.1L82.8,51.3
	z M101.5,34.7c0-0.1,0-0.1,0-0.3c-0.1,0.1-0.3,0.4-0.3,0.6s0,0.4,0,0.8c0,0.6,0.1,0.8,0.3,1C101.5,36.1,101.5,35.4,101.5,34.7z
	 M102.3,34c0-0.3,0-0.4,0-0.7c0,0,0,0.1-0.1,0.1c0,0.1,0,0.1,0,0.3c0,0.6-0.1,1.1-0.1,1.7v0.4C102.1,35.3,102.3,34.7,102.3,34z
	 M103.8,32.8c-0.1,0.4-0.3,1-0.3,1.5c-0.1,0.6-0.1,1.1-0.1,1.5c0,0.3,0,0.4,0.1,0.6L103.8,32.8z M114.2,26.1L114.2,26.1L114.2,26.1
	L114.2,26.1z M114.2,26.4L114.2,26.4l0.1-0.1C114.2,26.3,114.2,26.4,114.2,26.4z M109.4,33c0.7-0.8,1.3-1.7,2.1-2.7
	c0.1-0.3,0.3-0.4,0.6-0.7c0.1-0.3,0.1-0.6,0.3-0.8c-0.4,0.6-0.8,1.1-1.4,1.7c-0.6,0.7-1.1,1.5-1.7,2.1c-0.6,0.7-0.8,1.3-1,1.5
	C108.5,34.3,108.9,33.9,109.4,33z M111,32c0.1-0.3,0.4-0.6,0.7-0.8c0-0.1,0-0.1,0.1-0.3c-0.1,0.1-0.1,0.3-0.3,0.3
	c-0.4,0.6-0.8,1-1.3,1.5c-0.4,0.4-0.7,0.7-0.7,0.8l0.1,0.1l0.3-0.4C110,33.2,110.4,32.8,111,32z M112,35.3c0.1-0.6,0.1-1.3,0.1-1.8
	c-0.1,0.3-0.4,0.6-0.6,0.8v0.1c0,0.4-0.1,1-0.1,1.4s0,0.7,0,1c0,0.6,0.1,1.1,0.3,1.7l0.1-0.1C111.8,37.4,111.8,36.3,112,35.3z
	 M112.4,36.6c-0.1,0.3-0.1,0.6,0,0.7V36.6z M112.5,35.1L112.5,35.1L112.5,35.1L112.5,35.1z M113.9,36.8c-0.1,0.3-0.1,0.6,0,0.7V36.8
	z M114.1,35.4l-0.1,0.4l0.1,0.3V35.4z M114.2,34.6L114.2,34.6L114.2,34.6v0.1V34.6z M121.7,36.3c-0.3-0.1-0.6-0.3-1.1-0.6
	c-0.4-0.3-1-0.4-1.5-0.6c-0.6-0.1-1-0.4-1.5-0.6c-0.4-0.3-0.8-0.4-1.3-0.6c-0.1,0.7-0.3,1.4-0.3,2.3c0,0.7,0,1.5,0,2.3
	c0,0.4,0.1,1,0.3,2c0.1,1,0.4,1.5,0.7,1.8c0.4-0.1,1-0.4,1.4-0.8c0.6-0.4,1-1,1.4-1.5c0.4-0.6,0.8-1.1,1.1-1.8
	C121.4,37.3,121.7,36.7,121.7,36.3z M122.7,33.9c0.4-0.7,0.7-1.7,0.8-3c0.3-1.3,0.3-2.4,0.3-3.2c0-0.3,0-0.7,0-1.1
	c0-0.6-0.1-1-0.1-1.5c-0.1-0.6-0.1-1-0.3-1.4c-0.1-0.4-0.3-0.7-0.6-0.8c-0.4,0.1-1,0.4-1.4,0.7c-0.6,0.4-1,0.8-1.4,1.3
	c-0.4,0.4-0.8,1-1.1,1.5c-0.3,0.6-0.4,1-0.4,1.5c0,0.4,0,0.8-0.1,1.3c-0.4,0.3-0.4,0.7-0.4,1.1c0,0.8,0.3,1.8,0.8,2.7
	c0.6,0.8,1.4,1.4,2.4,1.4C121.7,34.2,122.1,34.2,122.7,33.9z M124.6,27.5c0-1.1-0.1-2-0.4-2.8l-0.1-0.6l0.1,0.7
	c0,0.4,0.1,0.7,0.1,1.1s0,0.7,0,1.1c0,1,0,2.1-0.1,3.1c-0.1,1.1-0.4,2.1-0.7,3.1v0.4c0.1-0.1,0.3-0.6,0.4-1.1
	c0.1-0.6,0.3-1.1,0.4-1.8c0.1-0.7,0.1-1.3,0.3-1.8C124.6,28.4,124.6,28,124.6,27.5z M124.8,30.2l-0.1,0.1l0.1,0.1V30.2z M125.1,28.7
	c-0.1,0.1-0.1,0.4,0,0.6V28.7z M125.9,31.8L125.9,31.8v0.1V31.8z M126.2,30.5l-0.1,0.1v0.1v0.1v-0.4H126.2z M126.2,28.8
	c0,0.3,0,0.7,0,1C126.3,29.4,126.3,29.1,126.2,28.8z"/>
</svg>
