<?xml version="1.0" encoding="utf-8"?>
<!-- Generator: Adobe Illustrator 22.1.0, SVG Export Plug-In . SVG Version: 6.00 Build 0)  -->
<svg version="1.1" id="Layer_1" xmlns="http://www.w3.org/2000/svg" xmlns:xlink="http://www.w3.org/1999/xlink" x="0px" y="0px"
	 width="100px" height="46px" viewBox="0 0 100 46" style="enable-background:new 0 0 100 46;" xml:space="preserve">
<style type="text/css">
	.st0{fill:#212121;}
</style>
<path class="st0" d="M33.3,8c0.2-0.3,0.4-0.7,0.6-1l-1,2C33,8.7,33.2,8.4,33.3,8z M35,6.2c-0.2,0.4-0.4,0.9-0.6,1.4
	C34.7,7.1,34.9,6.6,35,6.2z M46.8,6.2c-0.2,0.4-0.4,0.9-0.6,1.4C46.5,7.1,46.7,6.6,46.8,6.2z M44.8,9.1l1-2c-0.2,0.3-0.4,0.6-0.6,1
	C45,8.4,44.9,8.7,44.8,9.1z M77.8,7.2h-0.3V7c0-0.3,0.1-0.6,0.4-0.9h0.1c0.2-0.5,0.4-1,0.6-1.7c0.2-0.7,0.4-1.3,0.6-1.8
	c0.1-0.2,0.1-0.3,0.1-0.5c-0.1,0.1-0.3,0.3-0.4,0.6c-0.1,0.3-0.3,0.7-0.4,1c-0.1,0.4-0.3,0.7-0.3,1.1c-0.1,0.3-0.2,0.6-0.2,0.8
	c0-0.1,0.1-0.4,0.2-0.9c0.1-0.4,0.2-0.9,0.4-1.3c0.1-0.4,0.3-0.8,0.4-1.2c0.2-0.3,0.3-0.5,0.4-0.5l0.2,0.1c0.2,0,0.3,0.1,0.3,0.2
	h0.1c0.1,0,0.2,0,0.3,0.1l0.4-0.1c0.1,0.1,0.3,0.2,0.4,0.2l0.1,0.3c0,0.7-0.1,1.6-0.4,2.8c-0.3,1.1-0.6,1.9-1.1,2.5
	c0,0-0.1,0-0.2,0.1c-0.1,0-0.2,0.1-0.2,0.1c-0.2,0-0.5-0.1-0.9-0.3C78.2,7.5,78,7.4,77.8,7.2z M78.6,5L78.6,5
	c0.2-0.2,0.2-0.4,0.3-0.6C78.9,4.2,79,4,79.1,3.8h-0.1L78.6,5z M99.7,17.6c-0.9,1.9-2.3,3.5-4.1,5c-1.8,1.5-3.6,2.6-5.5,3.3
	c-0.2,0.5-0.4,1.2-0.8,1.9c-0.3,0.7-0.7,1.4-1.2,2c-0.5,0.6-1,1.2-1.6,1.6c-0.6,0.4-1.2,0.6-1.9,0.6c-0.5,0-0.8-0.1-1.2-0.2
	c-0.3-0.1-0.7-0.3-1.1-0.5c-0.7-0.3-1.2-0.6-1.7-1c-0.5-0.3-0.8-0.7-1-1.1c-0.2-0.4-0.4-0.8-0.5-1.4c-0.1-0.5-0.2-1.2-0.2-1.9
	c0-0.2,0-0.5,0-0.7c-0.1,0.1-0.2,0.3-0.3,0.4c-0.6,0.7-1.2,1.4-1.7,2c-0.6,0.6-1.1,0.9-1.5,0.9c-0.9,0-1.7-0.4-2.5-1.1
	c-0.6-0.5-1-1.1-1.2-1.8c-0.2,0.3-0.4,0.7-0.6,1c-0.8,1.3-1.6,2.6-2.4,3.7c-0.8,1.2-1.5,2.2-2.1,3.2c-0.6,1-1.1,1.7-1.3,2.1
	c-0.3,0.5-0.7,1.1-1.3,1.9c-0.5,0.7-1,1.3-1.5,1.6c-0.2,0.2-0.5,0.4-1,0.5c-0.4,0.2-0.7,0.3-1,0.3c-0.2,0-0.5-0.1-0.9-0.2
	c-0.4-0.1-0.8-0.3-1.2-0.5c-0.4-0.2-0.7-0.5-1.1-0.7C57.2,38.3,57,38,57,37.8c-0.1-0.2-0.1-0.5-0.1-0.7c0-0.2,0-0.5,0-0.7
	c0-1.1,0.3-2.4,0.9-3.8c0.6-1.4,1.3-2.8,2-4.2c0.7-1.4,1.4-2.8,2-4.1c0.6-1.3,0.9-2.4,0.9-3.3c0-0.5-0.2-0.8-0.6-1.1
	c-0.4-0.3-0.9-0.6-1.3-0.9c-0.3-0.2-0.5-0.4-0.8-0.6v0.1c0,0.5-0.2,1.4-0.6,2.5c-0.4,1.1-0.8,2.3-1.4,3.4c-0.5,1.2-1.1,2.3-1.6,3.4
	c-0.5,1.1-1,1.8-1.3,2.3c-0.2,0.3-0.5,0.4-0.8,0.4c-0.3,0-0.5-0.1-0.8-0.2c-0.3-0.1-0.5-0.2-0.7-0.4L52,29.7c-0.6-0.3-1-0.9-1.2-1.7
	c-0.2-0.9-0.2-1.6-0.2-2.2c0-0.8,0.1-1.6,0.3-2.5c0.2-0.9,0.3-1.6,0.3-2.1c0-0.1,0-0.2-0.1-0.3c-0.2,0.3-0.5,0.9-0.9,1.7
	c-0.4,0.8-0.9,1.7-1.4,2.5c-0.5,0.9-1.1,1.6-1.6,2.3c-0.6,0.7-1.1,1-1.5,1c-0.2,0-0.5-0.1-0.7-0.2c-0.2-0.1-0.5-0.2-0.7-0.3
	c-0.6-0.3-1.1-0.6-1.4-0.9c-0.3-0.3-0.5-0.6-0.6-0.9c0-0.1,0-0.2-0.1-0.2c-0.1,0.3-0.3,0.6-0.4,0.9c-0.7,1.5-1.5,2.9-2.2,4.2
	c-0.7,1.3-1.2,2.3-1.5,2.9c-0.2,0.4-0.6,1.3-1.2,2.6c-0.6,1.3-1.2,2.7-2,4.1c-0.7,1.4-1.4,2.7-2.1,3.7S31.5,46,31.2,46
	c-0.4,0-0.9-0.2-1.4-0.5c-0.6-0.3-1.2-0.6-1.6-1c-0.4-0.3-0.7-0.7-1-1.1c-0.2-0.4-0.4-0.8-0.5-1.3c-0.1-0.5-0.1-1.1-0.1-1.9
	c0-2.1,0.3-4.3,0.8-6.4c0.4-1.6,0.9-3.3,1.3-4.8c-0.4,0.7-0.7,1.3-1,2c-0.7,1.3-1.2,2.3-1.5,2.9c-0.2,0.4-0.6,1.3-1.2,2.6
	c-0.6,1.3-1.2,2.7-2,4.1c-0.7,1.4-1.4,2.7-2.1,3.7S19.7,46,19.3,46c-0.4,0-0.9-0.2-1.4-0.5c-0.6-0.3-1.2-0.6-1.6-1
	c-0.4-0.3-0.7-0.7-1-1.1c-0.2-0.4-0.4-0.8-0.5-1.3c-0.1-0.5-0.1-1.1-0.1-1.9c0-2.1,0.3-4.3,0.8-6.4c0.3-1.3,0.7-2.6,1-3.9
	c-0.1,0.1-0.1,0.2-0.2,0.2c-0.6,0.9-1.2,1.6-1.9,2.1c-0.7,0.6-1.3,0.9-1.9,0.9c-0.3,0-0.7-0.1-1.1-0.3c-0.4-0.2-0.9-0.4-1.3-0.7
	c-0.4-0.3-0.8-0.6-1-1c-0.3-0.4-0.4-0.8-0.4-1.2c0-1,0.1-2,0.2-3.1c0.1-1.1,0.3-2.1,0.6-3c0-0.1,0.1-0.3,0.1-0.4
	c0-0.2,0.1-0.3,0.1-0.4v-0.2c-0.4,0.4-0.8,0.9-1.3,1.5c-0.5,0.7-1,1.3-1.6,2c-0.6,0.7-1.1,1.2-1.7,1.7c-0.6,0.5-1.1,0.7-1.5,0.7
	c-1-0.5-1.9-0.9-2.4-1.4c-0.6-0.5-0.9-1.4-0.9-2.7c0-1,0.2-2,0.7-3c0.5-1.1,1.1-2.1,1.8-3c0.7-0.9,1.6-1.7,2.6-2.2
	c1-0.6,1.9-0.9,2.9-0.9c0.6,0,1.3,0.1,2,0.3c0.7,0.2,1.4,0.4,2,0.5c0.1-0.1,0.2-0.3,0.3-0.4s0.3-0.2,0.5-0.2c0.2,0,0.3,0,0.4,0.1
	l0.1,0.1c0,0,0.1,0.1,0.3,0.1c0,0,0.1,0,0.1-0.1l0.1,0.2c0.2,0,0.4,0,0.5-0.1l0.4,0.3c0.2-0.1,0.4,0,0.4,0.3
	c0.1,0.3,0.1,0.5,0.1,0.6c0,0.3-0.1,0.6-0.2,1.1c-0.2,0.5-0.4,0.9-0.6,1.4c-0.2,0.5-0.4,1-0.6,1.4c-0.2,0.4-0.3,0.7-0.4,0.9
	c-0.1,0.4-0.3,1-0.6,1.8c-0.3,0.8-0.5,1.7-0.7,2.6c-0.3,0.9-0.5,1.8-0.6,2.7c-0.2,0.9-0.2,1.5-0.2,1.9c0,0.1,0,0.1,0,0.2
	c0,0,0,0.1,0,0.2c0.3,0,0.7-0.3,1.2-0.9c0.5-0.5,1-1.2,1.6-2c0.6-0.8,1.2-1.7,1.9-2.6c0.7-1,1.3-1.9,1.8-2.8
	c0.6-0.9,1.1-1.7,1.5-2.4c0.4-0.7,0.7-1.2,0.9-1.5l0,0c0.1-0.2,0.2-0.5,0.3-0.7c0.9-2,1.9-4.1,3-6.3s2.2-4.2,3.3-5.9
	c1.1-1.8,2.2-3.2,3.2-4.4c1-1.2,1.9-1.7,2.7-1.7c0.1,0,0.3,0,0.5,0.1c0.2,0,0.5,0.1,0.8,0.2c0.3,0.1,0.5,0.1,0.7,0.2
	c0.2,0.1,0.3,0.2,0.3,0.2c0.1,0,0.3,0,0.4,0.1c0.1,0.1,0.2,0.2,0.2,0.4c0,0.2,0,0.4-0.1,0.5c0.2,0.3,0.3,0.5,0.4,0.7
	c0.1,0.2,0.1,0.5,0.1,0.8c0,1.2-0.3,2.4-0.8,3.6c-0.5,1.2-1.2,2.5-2,3.7c-0.8,1.2-1.6,2.4-2.6,3.4c-0.9,1.1-1.7,2.1-2.5,2.9
	c-0.5,0.6-1.2,1.3-1.9,1.9c-0.7,0.6-1.3,1.3-1.6,2c-0.7,1.3-1.4,2.9-2.2,4.8c-0.8,1.9-1.5,3.9-2.1,5.9c-0.7,2-1.2,4.1-1.7,6
	c-0.5,2-0.7,3.7-0.7,5.1v0.7l0.2-0.1c0.6-1,1.2-2,1.7-3.1c0.5-1.1,1-2.1,1.5-3.2c0.5-1,1.1-2.3,2.1-4.1c0.9-1.7,1.9-3.6,3-5.5
	s2.2-3.7,3.2-5.4c1-1.6,1.8-2.8,2.4-3.6c0,0,0-0.1,0.1-0.1c0.9-2,1.9-4.1,3-6.3S38,8,39.1,6.2c1.1-1.8,2.2-3.2,3.2-4.4
	c1-1.2,1.9-1.7,2.7-1.7c0.1,0,0.3,0,0.5,0.1c0.2,0,0.5,0.1,0.8,0.2c0.3,0.1,0.5,0.1,0.7,0.2c0.2,0.1,0.3,0.2,0.3,0.2
	c0.1,0,0.3,0,0.4,0.1C47.9,0.9,48,1.1,48,1.2c0,0.2,0,0.4-0.1,0.5C48,2,48.2,2.2,48.3,2.4c0.1,0.2,0.1,0.5,0.1,0.8
	c0,1.2-0.3,2.4-0.8,3.6c-0.5,1.2-1.2,2.5-2,3.7c-0.8,1.2-1.6,2.4-2.6,3.4c-0.9,1.1-1.7,2.1-2.5,2.9c-0.5,0.6-1.2,1.3-1.9,1.9
	c-0.7,0.6-1.3,1.3-1.6,2c-0.7,1.3-1.4,2.9-2.2,4.8c-0.8,1.9-1.5,3.9-2.1,5.9c-0.7,2-1.2,4.1-1.7,6c-0.5,2-0.7,3.7-0.7,5.1v0.7
	l0.2-0.1c0.6-1,1.2-2,1.7-3.1c0.5-1.1,1-2.1,1.5-3.2c0.5-1,1.1-2.3,2.1-4.1c0.9-1.7,1.9-3.6,3-5.5c1.1-1.8,2.1-3.6,3.1-5.2
	c0-0.2,0-0.4,0.1-0.6c0.1-0.8,0.2-1.6,0.4-2.4c0.2-0.8,0.5-1.6,0.7-2.2c0.3-0.7,0.6-1.1,1.1-1.2l0.2,0.1l0.3-0.1l0.1,0.2l0.3,0.1
	l0.1-0.1c0.1,0.1,0.1,0.3,0.1,0.5l0.2-0.3h0.1c0,0.2,0,0.4,0.1,0.5l0.2-0.5h0.1c0.1,0,0.2,0.1,0.2,0.2c0,0.2,0.1,0.3,0.1,0.4
	l0.1-0.4h0.1c0.3,0.3,0.4,0.5,0.4,0.7c0,0.4-0.1,0.9-0.2,1.7c-0.2,0.8-0.4,1.7-0.6,2.6c-0.2,0.9-0.5,1.8-0.7,2.7
	c-0.2,0.8-0.4,1.5-0.5,1.9c0.5-0.4,0.9-0.8,1.2-1.2c0.4-0.4,0.7-0.9,1.1-1.3c-0.3,0.5-0.6,0.9-0.9,1.3c-0.3,0.4-0.6,0.8-1,1.2v0.1
	c0.5-0.4,1-0.8,1.3-1.4c0.3-0.6,0.7-1.1,1.2-1.6c-0.2,0.4-0.5,0.7-0.7,1.1c-0.3,0.3-0.5,0.7-0.7,1.1c0,0.1-0.1,0.3-0.3,0.5
	c-0.2,0.2-0.4,0.4-0.4,0.5c1.1-1.1,2.1-2.3,2.9-3.7c-0.4,0.7-0.8,1.4-1.2,2l0.1,0.1c0.4-0.4,0.8-0.9,1.2-1.5
	c0.4-0.6,0.8-1.2,1.2-1.9c0.4-0.7,0.7-1.3,1.1-2c0.3-0.7,0.6-1.2,0.7-1.7c0.2-0.5,0.3-1.1,0.5-1.7c0.1-0.6,0.3-1.2,0.6-1.7
	c0-0.2,0.1-0.6,0.3-1.1c0.2-0.5,0.3-0.8,0.5-0.9l0.1,0.2l0.2-0.2l0.2,0.3l0.3-0.1l0.1,0.2l0.4-0.1c0.1,0.1,0.2,0.2,0.3,0.2
	c0.2,0,0.3,0.2,0.3,0.3c0,0.2,0,0.3,0,0.5c0,0.2,0,0.6-0.1,1.2c-0.1,0.6-0.2,1.2-0.3,1.8c-0.1,0.7-0.3,1.3-0.4,1.9
	c-0.2,0.6-0.3,1.1-0.3,1.3c-0.3,1.3-0.6,2.6-0.8,4c-0.2,1.3-0.3,2.7-0.3,4.1v0.5l0.2-0.1c1.3-1.6,2.5-3.3,3.4-5.2
	c0.9-1.7,1.7-3.4,2.6-5.1c-0.1-0.1-0.2-0.1-0.2-0.2c-0.4-0.4-0.6-1-0.6-1.7c0-0.3,0-0.7,0.1-1.2c0.1-0.5,0.2-1,0.4-1.5
	c0.2-0.5,0.4-0.9,0.6-1.3c0.2-0.4,0.6-0.6,0.9-0.6c0,0,0.2,0,0.4,0.1c0.2,0,0.5,0.1,0.7,0.2c0.2,0.1,0.4,0.1,0.6,0.2
	c0.2,0,0.3,0.1,0.3,0.1c0,0,0,0.1,0,0.1c0,0,0,0.1,0,0.1c0,0.8-0.2,1.5-0.5,2.2c-0.3,0.7-0.5,1.4-0.5,2.2c0,0.8,0.2,1.4,0.6,1.7
	c0.4,0.4,0.9,0.7,1.5,1c0.5,0.3,1,0.6,1.5,1c0.4,0.4,0.6,0.9,0.6,1.6s-0.3,1.6-0.8,2.9c-0.5,1.2-1.2,2.6-1.9,4
	c-0.7,1.4-1.4,2.9-2,4.4c-0.6,1.5-1,2.8-1.2,4c0.3,0,0.8-0.4,1.5-1.2c0.7-0.7,1.5-1.7,2.3-2.8c0.9-1.1,1.8-2.3,2.7-3.6
	c0.9-1.3,1.8-2.5,2.6-3.7c0.8-1.2,1.5-2.2,2.1-3.1c0.2-0.3,0.4-0.6,0.5-0.8c0.3-0.9,0.5-1.7,0.9-2.6c0.4-1,0.8-1.9,1.2-2.8
	c0.4-0.9,0.8-1.6,1.1-2.3l0.7-0.5l0.1,0.2l0.3-0.2c-0.1,0.1-0.1,0.3,0,0.4c0.1-0.1,0.2-0.2,0.2-0.2c0.1-0.1,0.1-0.1,0.2-0.2
	c0,0,0,0.1,0,0.1c0,0,0,0.1,0,0.1c0,0,0,0.1-0.1,0.1l0.6-0.3l0.5,0.3l-0.2,0.4c0,0.2,0,0.3,0,0.5c0.1,0.1,0.1,0.3,0,0.5
	c-0.2,0.8-0.5,1.6-0.9,2.5c-0.3,0.8-0.7,1.6-1,2.5c-0.3,0.8-0.5,1.7-0.7,2.6C75.1,24.2,75,25.1,75,26v0.3c0.4-0.2,0.9-0.7,1.5-1.3
	c0.6-0.7,1.1-1.4,1.7-2.1c0.6-0.7,1.1-1.5,1.7-2.2c0.1-0.2,0.3-0.3,0.4-0.5c0.2-0.4,0.3-0.8,0.5-1.2c0.6-1.2,1.3-2.3,2.2-3.2
	c0.9-0.9,1.8-1.4,2.8-1.4c0.4,0,0.7,0,0.9,0.1c0.8,0.3,1.4,0.5,2,0.7c0.6,0.2,1,0.5,1.4,0.8c0.4,0.3,0.6,0.8,0.8,1.4
	c0.2,0.6,0.2,1.4,0.2,2.5c0,0.4,0,0.8-0.1,1.2c-0.1,0.4-0.1,0.8-0.1,1.2v0.3c0,0,0.1,0,0.1,0c0,0,0.1,0,0.1,0c0.3,0,0.9-0.2,1.7-0.6
	c0.8-0.4,1.7-0.9,2.6-1.5c0.9-0.6,1.7-1.1,2.5-1.7C98.7,18.2,99.3,17.8,99.7,17.6z M64.7,22.4L64.7,22.4l0.1-0.5h-0.1V22.4z
	 M63.7,22c0.1-0.2,0.1-0.3,0.1-0.4c0-0.1,0-0.2-0.1-0.2C63.7,21.7,63.7,21.9,63.7,22z M54.5,15.4L54.5,15.4c0.1-0.1,0.2-0.2,0.2-0.3
	c0-0.1,0.1-0.3,0.1-0.4h-0.1L54.5,15.4z M53.8,16.8l0.2-0.7H54C53.9,16.4,53.8,16.7,53.8,16.8z M53.5,14.3c0,0,0.1-0.1,0.1-0.2h-0.1
	V14.3z M48,4.1L48,4.1l0.1-0.3H48V4.1z M38.6,17.9c0.5-0.5,1.2-1.2,1.8-2c0.7-0.8,1.4-1.6,2.1-2.5c0.7-0.9,1.4-1.9,2-2.9
	c0.7-1,1.2-2,1.7-3c0,0.1,0,0.2,0,0.2c0,0,0,0.1,0,0.2l0.1,0.1c0.3-0.8,0.6-1.5,1-2.2c0.3-0.7,0.5-1.5,0.5-2.3c0-0.1,0-0.2,0-0.3
	c0-0.1,0-0.2,0-0.3h-0.1c0,0.9-0.1,1.6-0.2,2c-0.1,0.5-0.3,0.9-0.5,1.2c0.4-1,0.6-1.9,0.6-2.8c0-0.2,0-0.4-0.1-0.5
	c0,0.3,0,0.5,0,0.8c0,0.3-0.1,0.5-0.1,0.8c0,0.3-0.2,0.8-0.5,1.6c-0.3,0.7-0.6,1.5-1.1,2.2c-0.4,0.8-0.8,1.5-1.2,2.1
	c-0.4,0.6-0.7,1-1,1.2c0.3-0.6,0.7-1.2,1.1-1.8c0.4-0.6,0.8-1.3,1.2-2c0.4-0.7,0.7-1.4,1-2.1c0.2-0.7,0.4-1.4,0.4-2.1V3.2
	C47.1,3.4,47,3.7,47,4c0,0.3,0,0.6-0.1,0.9c0-0.3,0-0.5,0.1-0.7c0.1-0.2,0.1-0.5,0-0.7c0,0.8-0.1,1.4-0.3,2
	c-0.2,0.6-0.5,1.1-0.8,1.7c0.2-0.5,0.4-1,0.6-1.6c0.2-0.5,0.3-1.1,0.3-1.6V3.8c-0.1,0.1-0.2,0.3-0.3,0.7c-0.1,0.4-0.2,0.7-0.3,0.9
	c0-0.2,0.1-0.4,0.1-0.5c0-0.2,0-0.3,0.1-0.4h-0.1c-0.3,0.4-0.7,1.1-1.4,2.1c-0.7,1-1.4,2.1-2,3.2C42.1,11,41.5,12,41,13
	s-0.8,1.6-0.9,1.9L40,14.9c-0.1,0.2-0.2,0.4-0.3,0.5c-0.1,0.2-0.2,0.5-0.3,0.7c-0.1,0.2-0.2,0.5-0.4,0.7l0.1,0.1
	c0.6-0.7,1.2-1.4,1.7-2.1c0.5-0.7,1.1-1.4,1.7-2L42.5,13c-0.2,0.2-0.5,0.6-0.9,1c-0.4,0.4-0.8,0.9-1.2,1.4c-0.4,0.5-0.8,1-1.1,1.4
	c-0.3,0.4-0.5,0.8-0.7,1V17.9z M36.1,4.1L36.1,4.1l0.1-0.3h-0.1V4.1z M26.7,17.9c0.5-0.5,1.2-1.2,1.8-2c0.7-0.8,1.4-1.6,2.1-2.5
	c0.7-0.9,1.4-1.9,2-2.9c0.7-1,1.2-2,1.7-3c0,0.1,0,0.2,0,0.2c0,0,0,0.1,0,0.2l0.1,0.1c0.3-0.8,0.6-1.5,1-2.2
	c0.3-0.7,0.5-1.5,0.5-2.3c0-0.1,0-0.2,0-0.3c0-0.1,0-0.2,0-0.3h-0.1c0,0.9-0.1,1.6-0.2,2c-0.1,0.5-0.3,0.9-0.5,1.2
	c0.4-1,0.6-1.9,0.6-2.8c0-0.2,0-0.4-0.1-0.5c0,0.3,0,0.5,0,0.8c0,0.3-0.1,0.5-0.1,0.8c0,0.3-0.2,0.8-0.5,1.6
	c-0.3,0.7-0.6,1.5-1.1,2.2C33.4,9,33,9.7,32.6,10.4c-0.4,0.6-0.7,1-1,1.2c0.3-0.6,0.7-1.2,1.1-1.8c0.4-0.6,0.8-1.3,1.2-2
	c0.4-0.7,0.7-1.4,1-2.1c0.2-0.7,0.4-1.4,0.4-2.1V3.2c-0.1,0.3-0.1,0.6-0.1,0.9c0,0.3,0,0.6-0.1,0.9c0-0.3,0-0.5,0.1-0.7
	c0.1-0.2,0.1-0.5,0-0.7c0,0.8-0.1,1.4-0.3,2C34.5,5.9,34.3,6.5,34,7c0.2-0.5,0.4-1,0.6-1.6c0.2-0.5,0.3-1.1,0.3-1.6V3.8
	c-0.1,0.1-0.2,0.3-0.3,0.7c-0.1,0.4-0.2,0.7-0.3,0.9c0-0.2,0.1-0.4,0.1-0.5c0-0.2,0-0.3,0.1-0.4h-0.1c-0.3,0.4-0.7,1.1-1.4,2.1
	c-0.7,1-1.4,2.1-2,3.2C30.3,11,29.7,12,29.1,13s-0.8,1.6-0.9,1.9l-0.1,0.1c-0.1,0.2-0.2,0.4-0.3,0.5c-0.1,0.2-0.2,0.5-0.3,0.7
	c-0.1,0.2-0.2,0.5-0.4,0.7l0.1,0.1c0.6-0.7,1.2-1.4,1.7-2.1c0.5-0.7,1.1-1.4,1.7-2L30.6,13c-0.2,0.2-0.5,0.6-0.9,1
	c-0.4,0.4-0.8,0.9-1.2,1.4c-0.4,0.5-0.8,1-1.1,1.4c-0.3,0.4-0.5,0.8-0.7,1V17.9z M1.4,24.7c0,0.1-0.1,0.3-0.1,0.4c0,0.1,0,0.2,0,0.4
	c0,0.2,0,0.3,0.1,0.4c0-0.2,0-0.4,0-0.6C1.3,25.1,1.4,24.9,1.4,24.7z M1.5,22.2L1.5,22.2c-0.5,1.1-0.7,2.2-0.7,3.2
	c0,0.4,0.1,0.8,0.2,1.1c0-0.2-0.1-0.6-0.1-1C0.9,24.3,1.1,23.2,1.5,22.2z M2.4,25.2c-0.1,0.5-0.1,0.8-0.1,1v0.4
	c0-0.2,0.1-0.5,0.1-0.7C2.4,25.7,2.4,25.4,2.4,25.2z M9.6,28.6c-0.1,0.3-0.2,0.6-0.2,1l0.1,0.5c0-0.2,0.1-0.5,0.1-0.7
	C9.6,29.2,9.6,28.9,9.6,28.6L9.6,28.6z M10.5,29.4c0,0.1-0.1,0.3-0.1,0.4c0,0.1,0,0.2,0,0.4v0.2c0.1-0.4,0.1-0.6,0.1-0.7V29.4z
	 M10.7,21.8L10.7,21.8c-0.2,0.2-0.3,0.7-0.5,1.4C10,24,9.8,24.9,9.6,25.8c-0.2,0.9-0.4,1.7-0.5,2.5C9,29,8.9,29.4,8.9,29.6
	c0,0.3,0.1,0.5,0.2,0.8c0.1-1.5,0.3-2.9,0.6-4.3C10,24.6,10.3,23.2,10.7,21.8z M11.6,17.7L11.6,17.7c-0.9-0.1-1.8,0.2-2.7,0.9
	C8,19.2,7.1,20,6.3,20.9c-0.8,1-1.4,2-2,3c-0.5,1.1-0.8,2-0.8,2.7V27c0.2-0.1,0.5-0.3,0.8-0.6v0.1c-0.1,0.1-0.2,0.2-0.4,0.4
	c-0.2,0.2-0.3,0.3-0.3,0.4c0.2-0.1,0.4-0.2,0.6-0.4c0.1-0.2,0.3-0.3,0.5-0.4c-0.2,0.3-0.4,0.5-0.5,0.6l-0.1,0.3
	c0.5-0.5,0.9-0.9,1.4-1.3c0.5-0.4,0.9-0.9,1.2-1.4c-0.1,0.2-0.3,0.5-0.6,0.9c-0.3,0.4-0.5,0.6-0.6,0.8l0.1,0.1
	c0.2-0.2,0.5-0.6,1.1-1.2c0.5-0.6,1.1-1.2,1.6-1.9c0.5-0.7,1-1.3,1.5-1.9c0.5-0.6,0.7-1,0.7-1.2C10,20.9,9.5,21.4,9.1,22
	S8.3,23,7.8,23.5c0-0.1,0.2-0.4,0.4-0.6c0.2-0.3,0.5-0.6,0.7-0.9c0.2-0.3,0.5-0.6,0.7-0.9c0.2-0.3,0.4-0.5,0.6-0.6
	c0.4-0.5,0.6-0.9,0.8-1.4C11.1,18.6,11.3,18.1,11.6,17.7z M17.6,24.5L17.6,24.5c0.1-0.1,0.3-0.4,0.6-0.8c0.3-0.5,0.6-0.9,1-1.5
	c0.1-0.2,0.2-0.4,0.3-0.5c0.2-0.6,0.5-1.1,0.8-1.7c-0.4,0.6-0.7,1.3-1.1,1.9C18.7,22.8,18.2,23.7,17.6,24.5z M16.4,37.1L16.4,37.1
	c-0.1,0.5-0.1,1-0.3,1.6s-0.2,1.1-0.2,1.6c0,0.3,0,0.5,0,0.8c0,0.2,0,0.5,0,0.8c0-0.6,0-1.3,0.1-1.9c0.1-0.7,0.1-1.3,0.1-1.9
	c0.1-0.1,0.1-0.3,0.1-0.4S16.4,37.2,16.4,37.1z M17.5,38c-0.4,1.2-0.5,2.5-0.5,3.8c0,0.2,0,0.4,0.1,0.5c0-0.8,0.1-1.5,0.2-2.2
	C17.3,39.4,17.4,38.7,17.5,38z M18.3,27c0,0.1-0.1,0.2-0.1,0.3c-0.1,0.3-0.3,0.5-0.4,0.7c-0.4,1.4-0.8,2.9-1.1,4.4
	c-0.4,1.7-0.7,3.3-1,4.8c-0.2,1.5-0.4,2.7-0.4,3.6c0,0.7,0.1,1.3,0.3,1.8c-0.1-0.2-0.1-0.6-0.2-1c0-0.4,0-0.7,0-0.9
	c0-2.2,0.3-4.5,1-7C17,31.3,17.7,29.1,18.3,27z M31.7,20.9c0.2-0.4,0.3-0.8,0.5-1.2c-2.2,3.8-4.5,7.6-6.6,11.4
	c-2.4,4.1-4.7,8.4-6.8,12.7c0.5-0.5,1.1-1.4,1.6-2.5c0.5-1.1,0.9-2,1.3-2.8c1.7-3.4,3.6-6.7,5.5-9.9C28.7,26.1,30.2,23.5,31.7,20.9z
	 M28.2,37.1L28.2,37.1c-0.1,0.5-0.1,1-0.3,1.6s-0.2,1.1-0.2,1.6c0,0.3,0,0.5,0,0.8c0,0.2,0,0.5,0,0.8c0-0.6,0-1.3,0.1-1.9
	c0.1-0.7,0.1-1.3,0.1-1.9c0.1-0.1,0.1-0.3,0.1-0.4S28.2,37.2,28.2,37.1z M29.3,38c-0.4,1.2-0.5,2.5-0.5,3.8c0,0.2,0,0.4,0.1,0.5
	c0-0.8,0.1-1.5,0.2-2.2C29.1,39.4,29.2,38.7,29.3,38z M30.2,26.9c0.1-0.5,0.3-0.9,0.5-1.4c0.2-0.4,0.3-0.9,0.4-1.3
	c-0.2,0.5-0.4,0.9-0.7,1.4c-0.2,0.6-0.4,1.2-0.7,2c-0.5,1.5-0.9,3.1-1.3,4.8c-0.4,1.7-0.7,3.3-1,4.8c-0.2,1.5-0.4,2.7-0.4,3.6
	c0,0.7,0.1,1.3,0.3,1.8c-0.1-0.2-0.1-0.6-0.2-1c0-0.4,0-0.7,0-0.9c0-2.2,0.3-4.5,1-7C28.9,31.2,29.5,29,30.2,26.9z M42.8,20.9
	c0,0.1,0,0.3-0.1,0.4c0.1-0.2,0.2-0.4,0.4-0.5c0.3-0.9,0.4-1.7,0.5-2.4c0,0,0,0.1-0.1,0.1C43.2,19.2,43,20,42.8,20.9z M42.8,22.2
	c0-0.1,0.1-0.3,0.1-0.4c-0.1,0.1-0.2,0.3-0.3,0.4c0,0.1,0,0.2,0,0.3C42.7,22.4,42.7,22.3,42.8,22.2z M42,23.6
	C42,23.5,42,23.5,42,23.6c0-0.1,0-0.2,0-0.3c-1.5,2.6-3,5.2-4.5,7.8c-2.4,4.1-4.7,8.4-6.8,12.7c0.5-0.5,1.1-1.4,1.6-2.5
	c0.5-1.1,0.9-2,1.3-2.8c1.7-3.4,3.6-6.7,5.5-9.9C40,27,41,25.3,42,23.6z M42.8,26.4c-0.1-0.2-0.1-0.5-0.1-0.8c0-0.3,0-0.5-0.1-0.7
	c0,0.1-0.1,0.1-0.1,0.2c0,0.1,0,0.2,0,0.3c0,0.2,0,0.4,0.1,0.6C42.7,26.1,42.7,26.3,42.8,26.4z M43.1,23.9
	C43.1,23.9,43.1,23.9,43.1,23.9c0,0.3-0.1,0.6-0.1,0.9c0,0.3,0,0.6,0,1c0-0.2,0.1-0.5,0.1-1C43.1,24.4,43.1,24.1,43.1,23.9z
	 M43.7,25.3L43.7,25.3L43.6,26h0.1V25.3z M44.2,23.6c-0.1,0.5-0.2,1-0.2,1.4c0,0.5-0.1,0.9-0.1,1.4c0.1-0.5,0.1-0.9,0.1-1.4
	C44.1,24.6,44.2,24.1,44.2,23.6z M44.5,22.3c0,0.1-0.1,0.2-0.1,0.4C44.5,22.6,44.5,22.5,44.5,22.3z M52.6,21.6c0,0.1,0,0.3-0.1,0.3
	h0.1V21.6L52.6,21.6z M52.4,19.9l0.1-0.4h-0.1L52.4,19.9z M51.3,27.4c-0.1-0.4-0.1-0.8-0.1-1.1c0-0.5,0-1.1,0.1-1.7
	c0.1-0.7,0.1-1.3,0.2-2c0.1-0.7,0.2-1.3,0.4-1.9c0.2-0.6,0.3-1.2,0.4-1.7h-0.1c-0.3,1.2-0.6,2.4-0.9,3.6c-0.3,1.2-0.4,2.4-0.4,3.7
	c0,0.8,0.1,1.5,0.4,2.2C51.4,28.1,51.4,27.8,51.3,27.4z M52.2,20.6l-0.1,0.3l0.1,0.1C52.2,20.8,52.2,20.7,52.2,20.6L52.2,20.6z
	 M51.7,26.3L51.7,26.3l-0.1,0.6h0.1V26.3z M52,26.5L52,26.5l-0.1,0.7H52V26.5z M52.1,21.3c-0.2,0.9-0.3,1.7-0.5,2.6
	c-0.1,0.9-0.2,1.7-0.2,2.7v0.4c0-0.3,0.1-0.7,0.2-1.2c0.1-0.5,0.1-1.1,0.2-1.7c0.1-0.6,0.1-1.1,0.2-1.6C52,21.9,52.1,21.5,52.1,21.3
	z M52.1,24.7c0-0.4,0.1-0.7,0.2-1c0.1-0.3,0.1-0.7,0.1-1c-0.1,0.4-0.2,0.7-0.2,1C52.2,24,52.1,24.4,52.1,24.7z M53.1,21.3
	C53,21.5,53,21.6,53,21.6c-0.1,0.3-0.2,0.6-0.3,1.1c-0.1,0.5-0.2,1-0.2,1.5c-0.1,0.5-0.1,1-0.1,1.5c0,0.5,0,0.9,0,1.2v0.8
	c0.1-1.1,0.2-2.2,0.3-3.2C52.7,23.4,52.9,22.3,53.1,21.3z M55.7,26.1c0.3-0.5,0.5-0.9,0.7-1.3c0.2-0.4,0.3-0.6,0.3-0.6v-0.1h-0.1
	c-0.4,0.7-0.7,1.4-1.2,2.1s-0.9,1.3-1.4,2v0.1h0.1c0.1-0.1,0.3-0.4,0.6-0.8C55.1,27.1,55.4,26.6,55.7,26.1z M56.8,25.2
	c0.1-0.2,0.2-0.4,0.2-0.4c0,0,0-0.1,0-0.1c0,0,0-0.1,0-0.1c-0.3,0.4-0.6,0.8-0.9,1.3c-0.3,0.5-0.5,1-0.7,1.4l0.1,0.1
	c0-0.1,0.2-0.3,0.3-0.5c0.2-0.2,0.4-0.5,0.5-0.8C56.5,25.7,56.6,25.4,56.8,25.2z M56.6,26L56.6,26l-0.1,0.3
	C56.5,26.2,56.6,26.1,56.6,26z M57.1,24.9c-0.2,0.4-0.3,0.6-0.5,0.8c0.1-0.1,0.2-0.2,0.3-0.3C57.1,25.3,57.1,25.1,57.1,24.9z
	 M60,14.9c-0.1,0.5-0.2,1-0.2,1.5v0.3L60,14.9z M59.8,18.8c-0.2,0.3-0.4,0.7-0.5,1.2c-0.2,0.5-0.4,0.8-0.6,1.1c0.2,0,0.4-0.4,0.7-1
	C59.7,19.5,59.8,19,59.8,18.8z M59.9,18.4c-0.1,0-0.1-0.1-0.2-0.1c0,0.1,0,0.1-0.1,0.1c-0.2,0.4-0.3,0.6-0.4,0.7
	c-0.2,0.2-0.3,0.5-0.5,0.9c-0.1,0.1-0.3,0.4-0.4,0.6c-0.1,0.3-0.2,0.5-0.3,0.7v0.1c0,0,0.2-0.2,0.4-0.5c0.2-0.3,0.4-0.7,0.6-1
	c0.2-0.4,0.4-0.7,0.5-1.1C59.8,18.7,59.8,18.5,59.9,18.4z M60.3,12.6l-0.2,0.2c-0.2,0.6-0.4,1.2-0.6,1.8c-0.2,0.5-0.3,1.2-0.3,1.8
	c0,0.2,0,0.4,0.1,0.5c0-0.8,0.1-1.5,0.2-2.2C59.7,13.9,60,13.2,60.3,12.6z M62.7,23.5c0.1-0.4,0.2-0.7,0.4-1.1
	c0.2-0.3,0.3-0.7,0.3-1.1c0-0.2-0.1-0.4-0.2-0.5c0,0.5,0,1-0.1,1.4C63,22.5,62.8,23,62.7,23.5z M58.1,35.6c-0.1,0.5-0.2,1.1-0.2,1.6
	v0.3L58.1,35.6z M58.4,32.6c-0.3,0.7-0.5,1.4-0.7,2.1c-0.2,0.7-0.3,1.5-0.3,2.2c0,0.4,0.1,0.7,0.2,0.9c0-1,0.1-1.9,0.3-2.7
	C58,34.3,58.2,33.5,58.4,32.6z M58.6,32l-0.2,0.5C58.5,32.4,58.6,32.2,58.6,32z M59.1,36.5L59.1,36.5c-0.1,0.2-0.2,0.4-0.2,0.6
	c0,0.2-0.1,0.4-0.1,0.6h0.1L59.1,36.5z M72.4,24.7c0-0.1,0-0.1,0-0.2c-0.1,0.1-0.2,0.3-0.2,0.4c0,0.1,0,0.3,0,0.6
	c0,0.4,0.1,0.6,0.2,0.7C72.4,25.7,72.4,25.2,72.4,24.7z M72.9,24.2c0-0.2,0-0.3,0-0.5c0,0,0,0.1-0.1,0.1c0,0.1,0,0.1,0,0.2
	c0,0.4-0.1,0.8-0.1,1.2v0.3C72.8,25.1,72.9,24.7,72.9,24.2z M74,23.3c-0.1,0.3-0.2,0.7-0.2,1.1c-0.1,0.4-0.1,0.8-0.1,1.1
	c0,0.2,0,0.3,0.1,0.4L74,23.3z M81.4,18.6L81.4,18.6L81.4,18.6L81.4,18.6z M81.4,18.8L81.4,18.8l0.1-0.1
	C81.4,18.7,81.4,18.8,81.4,18.8z M78,23.5c0.5-0.6,0.9-1.2,1.5-1.9c0.1-0.2,0.2-0.3,0.4-0.5c0.1-0.2,0.1-0.4,0.2-0.6
	c-0.3,0.4-0.6,0.8-1,1.2c-0.4,0.5-0.8,1.1-1.2,1.5c-0.4,0.5-0.6,0.9-0.7,1.1C77.3,24.4,77.6,24.1,78,23.5z M79.1,22.8
	c0.1-0.2,0.3-0.4,0.5-0.6c0-0.1,0-0.1,0.1-0.2c-0.1,0.1-0.1,0.2-0.2,0.2c-0.3,0.4-0.6,0.7-0.9,1.1c-0.3,0.3-0.5,0.5-0.5,0.6l0.1,0.1
	l0.2-0.3C78.4,23.6,78.7,23.3,79.1,22.8z M79.8,25.1c0.1-0.4,0.1-0.9,0.1-1.3c-0.1,0.2-0.3,0.4-0.4,0.6c0,0,0,0.1,0,0.1
	c0,0.3-0.1,0.7-0.1,1c0,0.3,0,0.5,0,0.7c0,0.4,0.1,0.8,0.2,1.2l0.1-0.1C79.7,26.6,79.7,25.8,79.8,25.1z M80.1,26
	c-0.1,0.2-0.1,0.4,0,0.5V26z M80.2,25L80.2,25L80.2,25L80.2,25z M81.2,26.2c-0.1,0.2-0.1,0.4,0,0.5V26.2z M81.3,25.2l-0.1,0.3
	l0.1,0.2V25.2z M81.4,24.6L81.4,24.6L81.4,24.6v0.1V24.6z M86.7,25.8c-0.2-0.1-0.4-0.2-0.8-0.4c-0.3-0.2-0.7-0.3-1.1-0.4
	c-0.4-0.1-0.7-0.3-1.1-0.4c-0.3-0.2-0.6-0.3-0.9-0.4c-0.1,0.5-0.2,1-0.2,1.6c0,0.5,0,1.1,0,1.6c0,0.3,0.1,0.7,0.2,1.4
	c0.1,0.7,0.3,1.1,0.5,1.3c0.3-0.1,0.7-0.3,1-0.6c0.4-0.3,0.7-0.7,1-1.1c0.3-0.4,0.6-0.8,0.8-1.3C86.5,26.5,86.7,26.1,86.7,25.8z
	 M87.4,24.1c0.3-0.5,0.5-1.2,0.6-2.1c0.2-0.9,0.2-1.7,0.2-2.3c0-0.2,0-0.5,0-0.8c0-0.4-0.1-0.7-0.1-1.1c-0.1-0.4-0.1-0.7-0.2-1
	c-0.1-0.3-0.2-0.5-0.4-0.6c-0.3,0.1-0.7,0.3-1,0.5c-0.4,0.3-0.7,0.6-1,0.9c-0.3,0.3-0.6,0.7-0.8,1.1c-0.2,0.4-0.3,0.7-0.3,1.1
	c0,0.3,0,0.6-0.1,0.9C84,20.9,84,21.2,84,21.5c0,0.6,0.2,1.3,0.6,1.9c0.4,0.6,1,1,1.7,1C86.7,24.3,87,24.3,87.4,24.1z M88.8,19.6
	c0-0.8-0.1-1.4-0.3-2l-0.1-0.4l0.1,0.5c0,0.3,0.1,0.5,0.1,0.8c0,0.3,0,0.5,0,0.8c0,0.7,0,1.5-0.1,2.2c-0.1,0.8-0.3,1.5-0.5,2.2
	L88,24c0.1-0.1,0.2-0.4,0.3-0.8c0.1-0.4,0.2-0.8,0.3-1.3c0.1-0.5,0.1-0.9,0.2-1.3C88.8,20.2,88.8,19.9,88.8,19.6z M88.9,21.5
	l-0.1,0.1l0.1,0.1V21.5z M89.1,20.4c-0.1,0.1-0.1,0.3,0,0.4V20.4z M89.7,22.6L89.7,22.6v0.1V22.6z M89.9,21.7l-0.1,0.1
	c0,0,0,0.1,0,0.1c0,0,0,0.1,0,0.1V21.7z M89.9,20.5c0,0.2,0,0.5,0,0.7C90,20.9,90,20.7,89.9,20.5z"/>
</svg>
